# xmcd
#
# Track frame offsets: 
#        150
#        19472
#        44175
#        60032
#        76215
#        93782
#        113462
#        127710
#        146802
#        169212
#        188992
#
# Disc length: 2833 seconds
#
# Revision: 10
# Processed by: cddbd v1.5.2PL0 Copyright (c) Steve Scherf et al.
# Submitted via: ExactAudioCopy v1.3
#
DISCID=890b0f0b
DTITLE=張學友 - 學友．熱
DYEAR=2001
DGENRE=Pop
TTITLE0=天氣這麼熱
TTITLE1=Let Me Go
TTITLE2=我真的受傷了
TTITLE3=如果這都不算愛
TTITLE4=想的都是他
TTITLE5=結束不是我要的結果
TTITLE6=Love
TTITLE7=算命
TTITLE8=我也和你一樣
TTITLE9=看開些吧！女孩
TTITLE10=放逐
EXTD=YEAR: 2001
EXTT0=
EXTT1=
EXTT2=
EXTT3=
EXTT4=
EXTT5=
EXTT6=
EXTT7=
EXTT8=
EXTT9=
EXTT10=
PLAYORDER=
